<?xml version="1.0" encoding="utf-8"?>
<!-- Generator: Adobe Illustrator 23.0.3, SVG Export Plug-In . SVG Version: 6.00 Build 0)  -->
<svg version="1.1" id="Calque_1" xmlns="http://www.w3.org/2000/svg" xmlns:xlink="http://www.w3.org/1999/xlink" x="0px" y="0px"
	 viewBox="0 0 131.4 128.1" style="enable-background:new 0 0 131.4 128.1;" xml:space="preserve">
<style type="text/css">
	.st0{fill-rule:evenodd;clip-rule:evenodd;fill:#D73548;}
	.st1{fill:#D73548;}
	.st2{fill-rule:evenodd;clip-rule:evenodd;fill:#FFFFFF;}
	.st3{fill:#FFFFFF;}
</style>
<g>
	<path class="st2" d="M65.7,0C29.4,0,0,29.4,0,65.7c0,29,18.8,53.7,44.9,62.4c3.3,0.6,4.5-1.4,4.5-3.2c0-1.6-0.1-6.7-0.1-12.2
		c-18.3,4-22.1-7.8-22.1-7.8c-3-7.6-7.3-9.6-7.3-9.6c-6-4.1,0.4-4,0.4-4c6.6,0.5,10.1,6.8,10.1,6.8c5.9,10,15.4,7.1,19.1,5.5
		c0.6-4.2,2.3-7.1,4.2-8.8c-14.6-1.7-29.9-7.3-29.9-32.5c0-7.2,2.6-13,6.8-17.6c-0.7-1.7-2.9-8.3,0.6-17.4c0,0,5.5-1.8,18.1,6.7
		c5.2-1.5,10.9-2.2,16.5-2.2S77,32.6,82.3,34c12.5-8.5,18.1-6.7,18.1-6.7c3.6,9.1,1.3,15.7,0.6,17.4c4.2,4.6,6.8,10.5,6.8,17.6
		c0,25.2-15.4,30.8-30,32.4c2.4,2,4.5,6,4.5,12.2c0,8.8-0.1,15.9-0.1,18c0,1.7,1.2,3.8,4.5,3.2c26.1-8.7,44.9-33.3,44.9-62.4
		C131.4,29.4,102,0,65.7,0z"/>
	<path class="st3" d="M24.9,94.4c-0.1,0.3-0.7,0.4-1.1,0.2c-0.5-0.2-0.7-0.7-0.6-1s0.7-0.4,1.1-0.2C24.8,93.6,25.1,94,24.9,94.4
		L24.9,94.4z"/>
	<path class="st3" d="M27.6,97.3c-0.3,0.3-0.9,0.2-1.3-0.3s-0.5-1.1-0.2-1.4s0.9-0.2,1.3,0.3S27.9,97,27.6,97.3L27.6,97.3z"/>
	<path class="st3" d="M30.1,101.1c-0.4,0.3-1.1,0-1.5-0.6s-0.4-1.3,0-1.6c0.4-0.3,1.1,0,1.5,0.6C30.6,100.1,30.6,100.8,30.1,101.1
		L30.1,101.1z"/>
	<path class="st3" d="M33.7,104.8c-0.4,0.4-1.1,0.3-1.7-0.3c-0.6-0.5-0.7-1.3-0.4-1.7c0.4-0.4,1.1-0.3,1.7,0.3
		C33.9,103.6,34.1,104.4,33.7,104.8L33.7,104.8z"/>
	<path class="st3" d="M38.6,106.9c-0.2,0.5-0.9,0.7-1.6,0.5c-0.7-0.2-1.2-0.8-1.1-1.3c0.2-0.5,0.9-0.8,1.6-0.5
		C38.3,105.8,38.7,106.4,38.6,106.9L38.6,106.9z"/>
	<path class="st3" d="M44,107.3c0,0.5-0.6,1-1.4,1c-0.8,0-1.4-0.4-1.4-1c0-0.5,0.6-1,1.4-1C43.3,106.3,44,106.8,44,107.3L44,107.3z"
		/>
	<path class="st3" d="M49,106.4c0.1,0.5-0.4,1.1-1.2,1.2s-1.5-0.2-1.6-0.7s0.5-1.1,1.2-1.2C48.2,105.6,48.9,105.9,49,106.4L49,106.4
		z"/>
</g>
</svg>
