<?xml version="1.0" encoding="utf-8"?>
<!-- Generator: Adobe Illustrator 23.0.3, SVG Export Plug-In . SVG Version: 6.00 Build 0)  -->
<svg version="1.1" id="Calque_1" xmlns="http://www.w3.org/2000/svg" xmlns:xlink="http://www.w3.org/1999/xlink" x="0px" y="0px"
	 viewBox="0 0 128.2 128.2" style="enable-background:new 0 0 128.2 128.2;" xml:space="preserve">
<style type="text/css">
	.st0{fill:#D73548;}
	.st1{fill:#FFFFFF;}
</style>
<path class="st1" d="M64,128.2c-18.1,0-36.2-0.1-54.4,0c-4.8,0-8.9-3.3-9.5-7.9c-0.1-0.5-0.1-1-0.1-1.4c0-36.5,0-73,0-109.6
	C0,4.1,3.9,0.1,9.2,0C15,0,20.8,0,26.6,0c30.7,0,61.4,0,92,0c5,0,8.3,3.4,9.2,6.5c0.2,0.9,0.4,1.8,0.4,2.7c0,36.6,0,73.1,0,109.7
	c0,5.2-3.9,9.2-9.2,9.2c-6.8,0-13.7,0-20.5,0C87,128.2,75.5,128.2,64,128.2z M68.4,55.9c0-2.2,0-4.5,0-6.7c0-1-0.4-1.3-1.3-1.3
	c-5.2,0-10.5,0-15.7,0c-1.6,0-1.6,0-1.6,1.6c0,19.5,0,39,0,58.4c0,1.2,0.4,1.6,1.6,1.6c5.4,0,10.8,0,16.2,0c1.6,0,1.6,0,1.6-1.6
	c0-9.8,0-19.6,0-29.4c0-2,0.1-4.1,0.5-6.1c0.7-4.1,2.6-7.4,7-8.5c1.4-0.3,2.8-0.4,4.3-0.4c4.6,0.1,7.4,2.2,8.4,6.6
	c0.5,2.4,0.8,5,0.8,7.5c0.1,10.1,0,20.2,0,30.2c0,1.6,0,1.7,1.7,1.7c5.4,0,10.7,0,16.1,0c1.2,0,1.6-0.3,1.6-1.5
	c0-11.7,0.1-23.4-0.1-35c-0.1-3.9-0.6-7.8-1.5-11.6c-1.6-6.8-5.5-11.8-12.5-13.7c-2.4-0.7-4.9-0.8-7.4-1.1
	c-4.4-0.5-8.6,0.4-12.4,2.7C72.7,50.8,70.4,53.1,68.4,55.9z M18.8,78.7c0,9.8,0,19.5,0,29.3c0,1.2,0.4,1.5,1.5,1.5
	c5.5,0,11,0,16.4,0c1,0,1.5-0.3,1.5-1.4c0-19.6,0-39.2,0-58.8c0-1.2-0.4-1.4-1.5-1.4c-5.4,0-10.9,0-16.3,0c-1.6,0-1.6,0-1.6,1.7
	C18.8,59.3,18.8,69,18.8,78.7z M28.5,39.7c6.2,0,11.1-4.9,11.1-11.1s-5-11.2-11.2-11.2s-11.1,5-11.1,11.2
	C17.3,34.8,22.3,39.7,28.5,39.7z"/>
</svg>
